<svg xmlns="http://www.w3.org/2000/svg" viewBox="0 0 160.03 193.88"><defs><style>.cls-1{fill:#e82357;}.cls-2{fill:#efe130;}.cls-3{fill:#fff;}.cls-4{fill:#42db5b;}</style></defs><g id="Layer_2" data-name="Layer 2"><g id="Layer_1-2" data-name="Layer 1"><path class="cls-1" d="M0,75.88v93.49a24.51,24.51,0,0,0,24.51,24.51h106A24.51,24.51,0,0,0,155,169.37V75.88Zm100,10.6a6.18,6.18,0,1,1-6.18,6.18A6.18,6.18,0,0,1,100,86.48Zm-22.55,0a6.18,6.18,0,1,1-6.18,6.18A6.18,6.18,0,0,1,77.44,86.48Zm-22.55,0a6.18,6.18,0,1,1-6.18,6.18A6.18,6.18,0,0,1,54.89,86.48Zm-22.55,0a6.18,6.18,0,1,1-6.18,6.18A6.18,6.18,0,0,1,32.34,86.48ZM81,159.27a5.51,5.51,0,0,1-3.88,1.61H32.64a5.5,5.5,0,1,1,0-11h44.5A5.5,5.5,0,0,1,81,159.27Zm46-31a5.79,5.79,0,0,1-4,1.6H31.91a6,6,0,0,1-5.68-4.59,5.38,5.38,0,0,1,1.6-4.8,5.81,5.81,0,0,1,4-1.61H123a5.68,5.68,0,0,1,5.68,4.59A5.41,5.41,0,0,1,127.05,128.28Zm-4.51-29.44a6.18,6.18,0,1,1,6.18-6.18A6.18,6.18,0,0,1,122.54,98.84Z"/><path class="cls-2" d="M155,50.38v20.5H0V50.39A24.51,24.51,0,0,1,24.51,25.88h92.62A4.88,4.88,0,0,0,118.27,31L129.59,42.3a4.91,4.91,0,0,0,6.95,0l10.24-10.21A24.43,24.43,0,0,1,155,50.38Z"/><path class="cls-3" d="M148.18,24.34l-8.1,8.1L129.93,42.59a4.86,4.86,0,0,1-6.89,0L111.83,31.38a4.87,4.87,0,0,1-1.13-5.11,4.77,4.77,0,0,1,1.13-1.78,4.86,4.86,0,0,1,6.89,0l7.77,7.77,4.83-4.83,10-10a4.87,4.87,0,1,1,6.89,6.89Z"/><path class="cls-4" d="M130,0a30,30,0,0,0-29.79,26.27A29,29,0,0,0,100,30,30,30,0,1,0,130,0Zm18.17,24.34-8.1,8.1L129.93,42.59a4.86,4.86,0,0,1-6.89,0L111.83,31.38a4.87,4.87,0,0,1-1.13-5.11,4.77,4.77,0,0,1,1.13-1.78,4.86,4.86,0,0,1,6.89,0l7.77,7.77,4.83-4.83,10-10a4.87,4.87,0,1,1,6.89,6.89Z"/></g></g></svg>