<svg xmlns="http://www.w3.org/2000/svg" xmlns:xlink="http://www.w3.org/1999/xlink" viewBox="0 0 155 155"><defs><style>.cls-1{fill:url(#linear-gradient);}.cls-2{fill:url(#linear-gradient-2);}.cls-3,.cls-4{fill:#fff;}.cls-3{opacity:0.3;}.cls-4{opacity:0.6;}</style><linearGradient id="linear-gradient" x1="77.49" y1="0.61" x2="77.49" y2="58.32" gradientUnits="userSpaceOnUse"><stop offset="0" stop-color="#efe130"/><stop offset="1" stop-color="#ffb57b"/></linearGradient><linearGradient id="linear-gradient-2" x1="3.02" y1="45.51" x2="131.55" y2="129.97" gradientUnits="userSpaceOnUse"><stop offset="0" stop-color="#ff5c6a"/><stop offset="1" stop-color="#e80057"/></linearGradient></defs><g id="Layer_2" data-name="Layer 2"><g id="Layer_1-2" data-name="Layer 1"><path class="cls-1" d="M52,0h51a52,52,0,0,1,52,52v5.85a0,0,0,0,1,0,0H0a0,0,0,0,1,0,0V52A52,52,0,0,1,52,0Z"/><path class="cls-2" d="M0,57.85H155a0,0,0,0,1,0,0V103a52,52,0,0,1-52,52H52A52,52,0,0,1,0,103V57.85a0,0,0,0,1,0,0Z"/><path class="cls-3" d="M79.4,60.24,72.23,81,61.91,57.84l-20,55.73a7.5,7.5,0,0,1-14.12-5.07L54.11,35.2A7.5,7.5,0,0,1,68,34.69Z"/><path class="cls-3" d="M127.21,41.27l-26.32,73.3a7.5,7.5,0,0,1-13.91.51L75.81,90,83,69.27l10.1,22.66,20-55.73a7.5,7.5,0,0,1,14.12,5.07Z"/><path class="cls-4" d="M79.4,60.25,72.23,81,62,58.07l-.1-.21H46l8.13-22.65A7.5,7.5,0,0,1,68,34.7Z"/><path class="cls-4" d="M121.26,57.86l-20.37,56.72a7.5,7.5,0,0,1-13.91.51L75.81,90,83,69.28l10.1,22.66,12.24-34.08Z"/></g></g></svg>