<svg xmlns="http://www.w3.org/2000/svg" xmlns:xlink="http://www.w3.org/1999/xlink" viewBox="0 0 154.97 154.53"><defs><style>.cls-1{fill:url(#linear-gradient);}.cls-2{fill:url(#linear-gradient-2);}.cls-3,.cls-5{fill:#fff;}.cls-3{opacity:0.3;}.cls-4{fill:url(#linear-gradient-3);}.cls-5{opacity:0.6;}</style><linearGradient id="linear-gradient" x1="-0.06" y1="49.46" x2="136.66" y2="139.3" gradientUnits="userSpaceOnUse"><stop offset="0" stop-color="#ff5c6a"/><stop offset="1" stop-color="#e80057"/></linearGradient><linearGradient id="linear-gradient-2" x1="77.49" y1="0.61" x2="77.49" y2="58.46" gradientUnits="userSpaceOnUse"><stop offset="0" stop-color="#efe130"/><stop offset="1" stop-color="#ffb57b"/></linearGradient><linearGradient id="linear-gradient-3" x1="61.89" y1="58.02" x2="62.05" y2="58.12" gradientUnits="userSpaceOnUse"><stop offset="0" stop-color="#ff5c6a"/><stop offset="1" stop-color="#e82357"/></linearGradient></defs><g id="Layer_2" data-name="Layer 2"><g id="Layer_1-2" data-name="Layer 1"><path class="cls-1" d="M0,57.62V129.8a24.62,24.62,0,0,0,24.51,24.73h106A24.62,24.62,0,0,0,155,129.8V57.62Z"/><path class="cls-2" d="M155,24.35c0-.39,0-.77,0-1.15,0-.18,0-.37-.05-.55s0-.49-.06-.73-.05-.4-.07-.6l-.09-.68c0-.2-.07-.39-.11-.59s-.08-.44-.13-.66-.08-.38-.13-.57-.11-.45-.17-.67-.09-.35-.14-.52-.15-.48-.22-.71-.1-.31-.16-.46l-.27-.76-.16-.39c-.11-.27-.23-.54-.35-.81l-.13-.3c-.15-.31-.29-.61-.45-.91l-.09-.18c-.19-.36-.38-.71-.59-1h0a24.5,24.5,0,0,0-21.1-12h-106A24.5,24.5,0,0,0,3.4,12.05h0c-.21.34-.4.69-.59,1l-.09.18-.45.91-.13.3c-.12.27-.24.54-.35.81l-.15.39c-.1.25-.19.5-.28.76s-.11.3-.16.46L1,17.63l-.15.52c-.06.22-.12.45-.17.67s-.09.38-.13.57-.09.44-.13.66-.07.39-.1.59-.07.45-.1.68,0,.39-.07.6,0,.48-.06.73a5.09,5.09,0,0,0,0,.55c0,.38,0,.76,0,1.15V58H155V24.35Z"/><path class="cls-3" d="M79.4,60.38,72.23,81.14,61.91,58l-20,55.73a7.5,7.5,0,0,1-14.12-5.07l26.32-73.3A7.5,7.5,0,0,1,68,34.83Z"/><path class="cls-3" d="M127.21,41.41l-26.32,73.3a7.5,7.5,0,0,1-13.91.51l-11.17-25L83,69.41l10.1,22.66,20-55.73a7.5,7.5,0,0,1,14.12,5.07Z"/><polygon class="cls-4" points="62.02 57.99 62.02 58.2 61.92 57.99 62.02 57.99"/><path class="cls-5" d="M79.41,60.38,72.24,81.14,62,58.2l-.1-.2H46l8.13-22.66A7.5,7.5,0,0,1,68,34.83Z"/><path class="cls-5" d="M121.27,58,100.9,114.71a7.5,7.5,0,0,1-13.91.51l-11.17-25L83,69.41l10.1,22.66L105.33,58Z"/></g></g></svg>